HIERARCHY
ROOT Hips
{
    OFFSET   0.000000   0.000000   0.000000
    CHANNELS 6 Xposition Yposition Zposition Zrotation Xrotation Yrotation
    JOINT Chest
    {
        OFFSET   0.000000   8.007240   0.000000
        CHANNELS 3 Zrotation Xrotation Yrotation
        JOINT Chest2
        {
            OFFSET   0.000000  22.077100   0.000000
            CHANNELS 3 Zrotation Xrotation Yrotation
            JOINT Neck
            {
                OFFSET   0.000000  23.254800   0.000000
                CHANNELS 3 Zrotation Xrotation Yrotation
                JOINT Head
                {
                    OFFSET   0.000000  14.370000   1.956600
                    CHANNELS 3 Zrotation Xrotation Yrotation
                    End Site
                    {
                        OFFSET   0.000000  19.566000   0.000000
                    }
                }
            }
            JOINT LeftCollar
            {
                OFFSET   3.911900  19.017000  -0.467064
                CHANNELS 3 Zrotation Xrotation Yrotation
                JOINT LeftShoulder
                {
                    OFFSET  10.383700   0.000000   0.000000
                    CHANNELS 3 Zrotation Xrotation Yrotation
                    JOINT LeftElbow
                    {
                        OFFSET  26.662100   0.001476   0.000517
                        CHANNELS 3 Zrotation Xrotation Yrotation
                        JOINT LeftWrist
                        {
                            OFFSET  28.869000  -0.000025  -0.000106
                            CHANNELS 3 Zrotation Xrotation Yrotation
                            JOINT LeftFinger0
                            {
                                OFFSET   2.044660  -2.323460   3.252850
                                CHANNELS 3 Zrotation Xrotation Yrotation
                                JOINT LeftFinger01
                                {
                                    OFFSET   3.088130   0.000000   0.000000
                                    CHANNELS 3 Zrotation Xrotation Yrotation
                                    JOINT LeftFinger02
                                    {
                                        OFFSET   2.639460   0.000000   0.000000
                                        CHANNELS 3 Zrotation Xrotation Yrotation
                                        End Site
                                        {
                                            OFFSET   2.582190   0.000000   0.000000
                                        }
                                    }
                                }
                            }
                            JOINT LeftFinger1
                            {
                                OFFSET   8.364480   0.000000   3.252850
                                CHANNELS 3 Zrotation Xrotation Yrotation
                                JOINT LeftFinger11
                                {
                                    OFFSET   4.646930   0.000000   0.000000
                                    CHANNELS 3 Zrotation Xrotation Yrotation
                                    JOINT LeftFinger12
                                    {
                                        OFFSET   2.323460   0.000000   0.000000
                                        CHANNELS 3 Zrotation Xrotation Yrotation
                                        End Site
                                        {
                                            OFFSET   2.273050   0.000000   0.000000
                                        }
                                    }
                                }
                            }
                            JOINT LeftFinger2
                            {
                                OFFSET   8.364490   0.000015   1.078090
                                CHANNELS 3 Zrotation Xrotation Yrotation
                                JOINT LeftFinger21
                                {
                                    OFFSET   5.111620   0.000000   0.000000
                                    CHANNELS 3 Zrotation Xrotation Yrotation
                                    JOINT LeftFinger22
                                    {
                                        OFFSET   2.788160   0.000016   0.000000
                                        CHANNELS 3 Zrotation Xrotation Yrotation
                                        End Site
                                        {
                                            OFFSET   2.727660   0.000000   0.000000
                                        }
                                    }
                                }
                            }
                            JOINT LeftFinger3
                            {
                                OFFSET   7.899780   0.000017  -1.078090
                                CHANNELS 3 Zrotation Xrotation Yrotation
                                JOINT LeftFinger31
                                {
                                    OFFSET   4.646930   0.000000   0.000000
                                    CHANNELS 3 Zrotation Xrotation Yrotation
                                    JOINT LeftFinger32
                                    {
                                        OFFSET   2.323470   0.000000   0.000000
                                        CHANNELS 3 Zrotation Xrotation Yrotation
                                        End Site
                                        {
                                            OFFSET   2.273050   0.000000   0.000000
                                        }
                                    }
                                }
                            }
                            JOINT LeftFinger4
                            {
                                OFFSET   7.435090   0.000000  -3.252850
                                CHANNELS 3 Zrotation Xrotation Yrotation
                                JOINT LeftFinger41
                                {
                                    OFFSET   3.717550   0.000000   0.000000
                                    CHANNELS 3 Zrotation Xrotation Yrotation
                                    JOINT LeftFinger42
                                    {
                                        OFFSET   1.858770   0.000000   0.000000
                                        CHANNELS 3 Zrotation Xrotation Yrotation
                                        End Site
                                        {
                                            OFFSET   1.818440   0.000000   0.000000
                                        }
                                    }
                                }
                            }
                        }
                    }
                }
            }
            JOINT RightCollar
            {
                OFFSET  -3.911900  19.017000  -0.467063
                CHANNELS 3 Zrotation Xrotation Yrotation
                JOINT RightShoulder
                {
                    OFFSET -10.383700   0.000019   0.000000
                    CHANNELS 3 Zrotation Xrotation Yrotation
                    JOINT RightElbow
                    {
                        OFFSET -26.662100   0.001175   0.000102
                        CHANNELS 3 Zrotation Xrotation Yrotation
                        JOINT RightWrist
                        {
                            OFFSET -28.869000   0.000016  -0.000079
                            CHANNELS 3 Zrotation Xrotation Yrotation
                            JOINT RightFinger0
                            {
                                OFFSET  -2.044660  -2.323490   3.252850
                                CHANNELS 3 Zrotation Xrotation Yrotation
                                JOINT RightFinger01
                                {
                                    OFFSET  -3.088140   0.000000   0.000000
                                    CHANNELS 3 Zrotation Xrotation Yrotation
                                    JOINT RightFinger02
                                    {
                                        OFFSET  -2.639460   0.000000   0.000000
                                        CHANNELS 3 Zrotation Xrotation Yrotation
                                        End Site
                                        {
                                            OFFSET  -2.582190   0.000000   0.000000
                                        }
                                    }
                                }
                            }
                            JOINT RightFinger1
                            {
                                OFFSET  -8.364480   0.000000   3.252850
                                CHANNELS 3 Zrotation Xrotation Yrotation
                                JOINT RightFinger11
                                {
                                    OFFSET  -4.646930   0.000000   0.000000
                                    CHANNELS 3 Zrotation Xrotation Yrotation
                                    JOINT RightFinger12
                                    {
                                        OFFSET  -2.323470   0.000000   0.000000
                                        CHANNELS 3 Zrotation Xrotation Yrotation
                                        End Site
                                        {
                                            OFFSET  -2.273050   0.000000   0.000000
                                        }
                                    }
                                }
                            }
                            JOINT RightFinger2
                            {
                                OFFSET  -8.364480   0.000000   1.078090
                                CHANNELS 3 Zrotation Xrotation Yrotation
                                JOINT RightFinger21
                                {
                                    OFFSET  -5.111620   0.000000   0.000000
                                    CHANNELS 3 Zrotation Xrotation Yrotation
                                    JOINT RightFinger22
                                    {
                                        OFFSET  -2.788160   0.000000   0.000000
                                        CHANNELS 3 Zrotation Xrotation Yrotation
                                        End Site
                                        {
                                            OFFSET  -2.727660   0.000000   0.000000
                                        }
                                    }
                                }
                            }
                            JOINT RightFinger3
                            {
                                OFFSET  -7.899780   0.000000  -1.078090
                                CHANNELS 3 Zrotation Xrotation Yrotation
                                JOINT RightFinger31
                                {
                                    OFFSET  -4.646930   0.000000   0.000000
                                    CHANNELS 3 Zrotation Xrotation Yrotation
                                    JOINT RightFinger32
                                    {
                                        OFFSET  -2.323470   0.000000   0.000000
                                        CHANNELS 3 Zrotation Xrotation Yrotation
                                        End Site
                                        {
                                            OFFSET  -2.273050   0.000000   0.000000
                                        }
                                    }
                                }
                            }
                            JOINT RightFinger4
                            {
                                OFFSET  -7.435090   0.000000  -3.252850
                                CHANNELS 3 Zrotation Xrotation Yrotation
                                JOINT RightFinger41
                                {
                                    OFFSET  -3.717550   0.000000   0.000000
                                    CHANNELS 3 Zrotation Xrotation Yrotation
                                    JOINT RightFinger42
                                    {
                                        OFFSET  -1.858770   0.000000   0.000000
                                        CHANNELS 3 Zrotation Xrotation Yrotation
                                        End Site
                                        {
                                            OFFSET  -1.818440   0.000000   0.000000
                                        }
                                    }
                                }
                            }
                        }
                    }
                }
            }
        }
    }
    JOINT LeftHip
    {
        OFFSET   9.783040   0.000000   0.000000
        CHANNELS 3 Zrotation Xrotation Yrotation
        JOINT LeftKnee
        {
            OFFSET   0.000032 -41.789100  -0.002222
            CHANNELS 3 Zrotation Xrotation Yrotation
            JOINT LeftAnkle
            {
                OFFSET   0.000087 -41.133200  -0.000135
                CHANNELS 3 Zrotation Xrotation Yrotation
                JOINT LeftToe
                {
                    OFFSET   0.000000  -6.358960  14.674500
                    CHANNELS 3 Zrotation Xrotation Yrotation
                    End Site
                    {
                        OFFSET   0.000000   0.000000   3.913200
                    }
                }
            }
        }
    }
    JOINT RightHip
    {
        OFFSET  -9.783040   0.000000   0.000000
        CHANNELS 3 Zrotation Xrotation Yrotation
        JOINT RightKnee
        {
            OFFSET   0.000047 -41.789100  -0.000896
            CHANNELS 3 Zrotation Xrotation Yrotation
            JOINT RightAnkle
            {
                OFFSET  -0.000117 -41.133300  -0.000248
                CHANNELS 3 Zrotation Xrotation Yrotation
                JOINT RightToe
                {
                    OFFSET   0.000000  -6.358970  14.674500
                    CHANNELS 3 Zrotation Xrotation Yrotation
                    End Site
                    {
                        OFFSET   0.000000   0.000000   3.913200
                    }
                }
            }
        }
    }
}
MOTION
Frames: 4
Frame Time:   0.016667
 -3.920070  89.428100   1.488850  -0.651652  -4.282160   3.137630   2.692000   3.712930  -1.940690   5.525780   7.328120  -4.066920  -1.171130  -8.702800  -0.177178  -2.053500 -17.624400 -34.057600  -3.939550   3.496530  -1.089800 -72.128700  20.779600  -9.715910  -3.932000  -8.225810 -11.758300   3.750430  -8.281880   9.724770  40.462600  28.448400 -68.101300 -12.424700   0.000260   0.000134  -1.212350   0.001901   0.000000 -25.560500   4.696320  -9.714370 -21.239700   0.001740  -0.000976 -14.867800  -0.005268   0.000336 -26.504500   3.312450  -6.609420 -26.695800  -0.002729  -0.000565 -17.779400  -0.001789  -0.002170 -26.068700   1.211580  -2.474970 -26.094700  -0.003901   0.000000 -17.379100  -0.003518  -0.001177 -29.792200   1.281010  -2.235420 -44.725800   0.001611   0.000781 -29.787300   0.000000   0.001171   3.877740   0.101387   9.116270  71.948200   7.715860  -0.318882   0.070848  -3.496360  11.706100 -15.004700  -9.816450   5.402300 -44.207800  33.828900  73.157500  18.990700  -0.009816  -0.001660   4.495370   0.003216   0.000424  24.342400   3.072510   6.756670  20.065000  -0.010237  -0.007605  14.045500  -0.006306   0.003722  23.522900   2.751920   6.294200  23.674200  -0.018069   0.004509  15.767000  -0.012269   0.005436  23.849400   1.918700   4.331060  23.922000  -0.018503   0.004141  15.932000  -0.014464   0.004233  29.269300   1.367880   2.435610  43.947700  -0.002397   0.014743  29.269100  -0.007208   0.016193   2.581680   9.646280   2.320370   0.880687   0.656333   9.644270  -4.422490  -4.096150   0.757775   0.000000   0.000000   0.000000   1.657030   5.101830  -4.590490   2.720030   3.481380  -7.875710  -6.191730  -3.863730  -2.468840   0.000000   0.000000   0.000000
 -3.958350  89.418700   1.513930  -0.654369  -4.270110   3.181200   2.639130   3.678280  -1.890590   5.415080   7.263240  -3.961260  -0.897463  -8.393570  -0.131117  -1.567890 -17.006200 -33.333500  -3.986080   3.462190  -1.113480 -72.111700  20.838500  -9.695430  -3.833170  -8.323200 -11.610900   3.817330  -8.255730   9.780680  40.545700  28.548400 -68.180700 -12.391500   0.000234   0.000119  -1.195770   0.001891   0.000000 -25.545000   4.697570  -9.718560 -21.226500   0.000969  -0.000895 -14.858500  -0.005684   0.000205 -26.494500   3.317370  -6.625900 -26.680000  -0.003006  -0.000413 -17.768900  -0.001914  -0.002308 -26.056100   1.220510  -2.496650 -26.082100  -0.004138  -0.000114 -17.370700  -0.003590  -0.001364 -29.772200   1.283870  -2.242630 -44.696200  -0.005077  -0.000400 -29.767600   0.000641   0.000196   3.950640   0.066278   9.104970  72.009200   7.721340  -0.351124   0.088701  -3.504200  11.604600 -14.980100  -9.784940   5.372450 -44.201000  33.857700  73.206000  18.990300  -0.010237  -0.001733   4.495170   0.003197   0.000297  24.359800   3.081880   6.772940  20.079600  -0.007531  -0.007552  14.055700  -0.006226   0.003712  23.551500   2.760970   6.308100  23.704500  -0.021682   0.004454  15.787200  -0.013699   0.005428  23.881900   1.927950   4.346480  23.955100  -0.023697   0.004087  15.954100  -0.016137   0.004198  29.296600   1.367780   2.425060  43.988500  -0.002396   0.017423  29.296300  -0.004700   0.017916   2.597430   9.670270   2.310130   0.887721   0.627484   9.629960  -4.429690  -4.096480   0.744965  -0.000000   0.000000   0.000000   1.687890   5.113720  -4.617690   2.714290   3.478770  -7.872150  -6.198740  -3.884530  -2.484090  -0.000000   0.000000   0.000000
 -3.991180  89.408300   1.541040  -0.663030  -4.262240   3.215120   2.586410   3.647790  -1.833720   5.304520   7.206890  -3.842310  -0.610823  -8.067290  -0.085542  -1.063870 -16.351100 -32.586500  -4.038960   3.424660  -1.142160 -72.090700  20.877100  -9.670250  -3.735880  -8.389530 -11.489300   3.913970  -8.247250   9.815760  40.571100  28.641900 -68.266700 -12.358400   0.000210   0.000110  -1.179180   0.001872  -0.000000 -25.531800   4.706280  -9.747900 -21.217400   0.000000  -0.000820 -14.852200  -0.005920   0.000155 -26.484900   3.338120  -6.666670 -26.668900  -0.003309  -0.000229 -17.761500  -0.002071  -0.002454 -26.047500   1.241230  -2.538620 -26.074500  -0.004398  -0.000230 -17.365600  -0.003630  -0.001522 -29.761400   1.285250  -2.246430 -44.680300  -0.011428  -0.000797 -29.757100   0.000817  -0.001109   4.014990   0.028774   9.096620  72.068200   7.743650  -0.379250   0.115161  -3.523890  11.503100 -14.938700  -9.745820   5.350820 -44.209900  33.902400  73.276100  18.987500  -0.010625  -0.001798   4.493730   0.003181   0.000170  24.368900   3.097970   6.803660  20.089000  -0.006320  -0.007495  14.062300  -0.006200   0.003693  23.572900   2.776810   6.335500  23.726700  -0.025294   0.004400  15.802000  -0.015128   0.005423  23.911200   1.946320   4.380270  23.985800  -0.028891   0.004033  15.974500  -0.017809   0.004165  29.315500   1.367770   2.417700  44.016900  -0.002396   0.020104  29.315200  -0.004201   0.019640   2.627880   9.694330   2.289060   0.893773   0.598622   9.622050  -4.438070  -4.098720   0.739409  -0.000000   0.000000   0.000000   1.719170   5.137230  -4.644100   2.710810   3.471500  -7.864160  -6.205660  -3.902750  -2.505280   0.000000   0.000000   0.000000
 -4.016400  89.398800   1.569830  -0.673794  -4.258610   3.241280   2.534510   3.618360  -1.777070   5.195720   7.152520  -3.724000  -0.327398  -7.735080  -0.043804  -0.569912 -15.681200 -31.799600  -4.116350   3.388220  -1.151650 -72.061700  20.840800  -9.610740  -3.658540  -8.387940 -11.438200   3.996380  -8.343000   9.798320  40.320300  28.493700 -68.250100 -12.404700   0.000180   0.000112  -1.202350   0.001852  -0.000034 -25.601200   4.769260  -9.848540 -21.282700  -0.000917  -0.000749 -14.897900  -0.005901   0.000076 -26.565100   3.388220  -6.740120 -26.791700  -0.003637  -0.000011 -17.843300  -0.002267  -0.002608 -26.158400   1.279470  -2.598130 -26.187400  -0.004685  -0.000343 -17.440800  -0.003580  -0.001641 -29.876900   1.265850  -2.202860 -44.852200  -0.013610  -0.001417 -29.871600   0.001035  -0.002276   4.056740  -0.004432   9.102280  72.122000   7.802650  -0.402278   0.156031  -3.565940  11.412200 -14.866100  -9.680930   5.342270 -44.240300  33.935400  73.314500  18.949700  -0.011022  -0.001863   4.474850   0.003176   0.000032  24.362200   3.112200   6.836350  20.085300  -0.004654  -0.007438  14.059700  -0.006150   0.003676  23.575700   2.791470   6.366640  23.729900  -0.023494   0.004348  15.804000  -0.013837   0.005419  23.926600   1.968490   4.426470  24.002400  -0.027453   0.003981  15.985600  -0.016425   0.004133  29.315900   1.367800   2.417550  44.017300  -0.002397   0.018968  29.315600  -0.004078   0.018412   2.661000   9.686980   2.262690   0.889293   0.652882   9.620060  -4.455180  -4.143450   0.736126   0.000000   0.000000   0.000000   1.740360   5.165340  -4.671180   2.718670   3.455450  -7.854510  -6.213850  -3.921740  -2.519140   0.000000   0.000000   0.000000
